<svg id="Layer_1" data-name="Layer 1" xmlns="http://www.w3.org/2000/svg" viewBox="0 0 300 300"><defs><style>.cls-1{fill:#c9e5c9;}.cls-2{fill:#e3e11f;}.cls-3{fill:#25a64a;}.cls-4{fill:#ed1c24;}.cls-5{fill:#04592e;}</style></defs><title>logo_svg</title><path class="cls-1" d="M64.83,219.63a15,15,0,1,0,15,15A15,15,0,0,0,64.83,219.63Zm0,24a9,9,0,1,1,9-9A9,9,0,0,1,64.83,243.67Z"/><path class="cls-2" d="M118.93,221.43a10.82,10.82,0,1,0-10.82,10.82A10.83,10.83,0,0,0,118.93,221.43Zm-10.82,4.41a4.41,4.41,0,1,1,4.41-4.41A4.41,4.41,0,0,1,108.11,225.84Z"/><circle class="cls-3" cx="116.12" cy="248.28" r="6.41"/><circle class="cls-4" cx="76.85" cy="209.01" r="4.01"/><path class="cls-5" d="M278.81,258.08H234.07l10.45-36.58a3.21,3.21,0,0,0-1.22-3.49l-20.14-14.39v-40.3a3.21,3.21,0,0,0-3.21-3.21H215.2V129.25a59.65,59.65,0,0,1,7.18-17l1.3,1a29.23,29.23,0,0,0,2.81,1.86,25.89,25.89,0,0,0,13.12,3.5q.91,0,1.83-.06l.91-.06.47-.06a39.13,39.13,0,0,0,11.34-4.14,62.06,62.06,0,0,0,6.08-3.93,32,32,0,0,0,6-6.21,46.44,46.44,0,0,0,6.18-10.37c2.3-4.88,4.46-11,5.5-14l.1-.27c.17-.49.3-1,.43-1.49l.16-.59a78,78,0,0,0,2.26-13.63l.05-.52a115,115,0,0,0,0-13.85,75.66,75.66,0,0,0-1.22-8.07,3.8,3.8,0,0,0-6.76-1.47L270,43.88l-.11.13a62,62,0,0,1-11.66,8.61,181.3,181.3,0,0,1-22.85,9.87l-.52.21A45,45,0,0,0,217.89,76a23.31,23.31,0,0,0-3.83,7.1,32,32,0,0,0-1.25,14.74,3.21,3.21,0,0,0,6.34-.94,25.32,25.32,0,0,1,1-11.81,17,17,0,0,1,2.79-5.14,38.64,38.64,0,0,1,14.54-11.39,187.71,187.71,0,0,0,23.7-10.24l.36-.2a67.21,67.21,0,0,0,12.79-9.49q.08.7.15,1.4a108.77,108.77,0,0,1,0,12.82l0,.37a73,73,0,0,1-2.05,12.54c-.07.24-.13.49-.2.74s-.16.64-.27,1l-.1.27c-1,2.85-3.1,8.77-5.26,13.37a40.51,40.51,0,0,1-5.41,9.11,26.74,26.74,0,0,1-4.73,5,55.57,55.57,0,0,1-5.32,3.45,32.41,32.41,0,0,1-9.35,3.46l-.77.05a19.69,19.69,0,0,1-11.29-2.57,23.08,23.08,0,0,1-2.21-1.46l-1.45-1.07a72,72,0,0,1,20.67-17.41,3.21,3.21,0,0,0-3.23-5.54c-16.71,9.74-27.53,22.32-33,38.33H172.85a3.21,3.21,0,0,0-3.21,3.21v15.16H153.09a3.21,3.21,0,0,0-3.21,3.21v16.1h-4.76a3.21,3.21,0,0,0-3.21,3.21v40.3l-.52.37-26.28-46.62a4,4,0,0,1-.52-2V122.89a13.71,13.71,0,0,0,8.7-12.74V96.7A13.72,13.72,0,0,0,109.6,83H90.27V55.76A8.08,8.08,0,0,1,91.83,51a24.22,24.22,0,0,1,10.35-8.14,12.13,12.13,0,0,1,4.84-.94h18.13A24.86,24.86,0,0,1,121,54.32a27.54,27.54,0,0,1-5.12,5.47,4.63,4.63,0,0,1-2.89,1H100.49a3.21,3.21,0,1,0,0,6.41H113a11.06,11.06,0,0,0,6.9-2.36,33.89,33.89,0,0,0,6.37-6.8,32.41,32.41,0,0,0,5.35-19.37,3.21,3.21,0,0,0-3.2-3.12H107A18.48,18.48,0,0,0,99.62,37a30.88,30.88,0,0,0-13,10.27,14.75,14.75,0,0,0-.86,1.4l-.83-.89a14.55,14.55,0,0,0-5.3-3.61l-2.46-1a14.39,14.39,0,0,0-5.27-1H53.61a4,4,0,0,0-4,4v5a9.55,9.55,0,0,0,2.82,6.8L58,63.54a12.74,12.74,0,0,0,9.07,3.76H83.86V83H64.54a13.72,13.72,0,0,0-13.7,13.7v13.44a13.73,13.73,0,0,0,8.6,12.72V155.4a3.91,3.91,0,0,1-.5,1.92l-37.37,66.3A27.42,27.42,0,0,0,45.44,264.5H278.81a3.21,3.21,0,0,0,0-6.41ZM176.06,128.86h32.72v31.26h-23V144a3.21,3.21,0,0,0-3.21-3.21h-6.48Zm-19.77,18.37h23v12.89h-23ZM67.08,60.88A6.37,6.37,0,0,1,62.54,59L57,53.41A3.23,3.23,0,0,1,56,51.15V48.59H71.92a8,8,0,0,1,2.92.55l2.46,1a8.08,8.08,0,0,1,2.95,2l2.75,3a3.2,3.2,0,0,1,.86,2.18v3.62Zm-2.24,99.77a10.71,10.71,0,0,0,1.38-5.25v-32a3.39,3.39,0,0,0-1.68-6.34,6.93,6.93,0,0,1-6.92-6.92V96.7a6.93,6.93,0,0,1,6.92-6.92H109.6a6.93,6.93,0,0,1,6.92,6.92v13.44a6.93,6.93,0,0,1-6.92,6.92H86.37a3.39,3.39,0,1,0,0,6.78H108V155.4a10.61,10.61,0,0,0,1.36,5.2l15.11,26.8-11.12,6.9a8.63,8.63,0,0,1-7.79.65l-16.74-6.84a3.2,3.2,0,0,0-1.77-.54H86.9a3.2,3.2,0,0,0-1.77.54l-16.74,6.84a8.63,8.63,0,0,1-7.79-.65l-10.91-6.77Zm63.86,97.16H87.86a3.36,3.36,0,0,0-.79-.1H45.44a20.63,20.63,0,0,1-18-30.76l19.07-33.83,10.68,6.63a15.07,15.07,0,0,0,13.6,1.14L87,194.28l16.17,6.61a15.08,15.08,0,0,0,13.6-1.14L127.64,193l19.11,33.91a20.73,20.73,0,0,1-18.06,30.91Zm50.64.27H146.19a27.53,27.53,0,0,0,6.09-7.23,27.05,27.05,0,0,0,.21-27.19l-7.93-14.06,34.77-24.83Zm4-82.62-.37-.07-.33,0-.1,0-.11,0-.32,0-.39.08-.2,0-.25.11c-.07,0-.14,0-.2.07s-.12.09-.19.13-.14.06-.21.11L148.33,199V166.52h68.43V199L184.4,175.93c-.07,0-.14-.07-.21-.11s-.12-.1-.19-.13-.13,0-.19-.07l-.26-.11Z"/></svg>