<svg id="Layer_1" data-name="Layer 1" xmlns="http://www.w3.org/2000/svg" xmlns:xlink="http://www.w3.org/1999/xlink" viewBox="0 0 394.77 369.45"><defs><style>.cls-1,.cls-13,.cls-2,.cls-24,.cls-25,.cls-5{fill:none;}.cls-2,.cls-5{stroke:#fff;}.cls-13,.cls-2,.cls-24,.cls-25,.cls-5{stroke-miterlimit:10;}.cls-2,.cls-24,.cls-25{stroke-width:2px;}.cls-3{fill:#e1e8f6;}.cls-4{fill:#e6e8e8;}.cls-5{opacity:0.75;isolation:isolate;}.cls-26,.cls-6{fill:#ee5050;}.cls-7{fill:#d35050;}.cls-8{fill:url(#linear-gradient);}.cls-9{fill:#19034d;}.cls-10{fill:#ff735f;}.cls-11{fill:#f8bd7a;}.cls-12{fill:#db6352;}.cls-13{stroke:#19034d;}.cls-14{fill:url(#linear-gradient-2);}.cls-15{fill:url(#linear-gradient-3);}.cls-16{fill:url(#linear-gradient-4);}.cls-17{fill:url(#linear-gradient-5);}.cls-18{fill:#262b40;}.cls-19{fill:#fff;}.cls-20{fill:#0648b3;}.cls-21{clip-path:url(#clip-path);}.cls-22,.cls-27{fill:#228f4e;}.cls-23{fill:#f5ba00;}.cls-24{stroke:#0648b3;}.cls-25{stroke:#e1e8f6;}.cls-26{font-size:60px;}.cls-26,.cls-27{font-family:ArialMT, Arial;}.cls-27{font-size:54.54px;}</style><linearGradient id="linear-gradient" x1="36.35" y1="956.49" x2="68.88" y2="941.6" gradientTransform="translate(42 -645.89)" gradientUnits="userSpaceOnUse"><stop offset="0" stop-color="#ee5050" stop-opacity="0.91"/><stop offset="0.56" stop-color="#311573" stop-opacity="0"/></linearGradient><linearGradient id="linear-gradient-2" x1="191.61" y1="972.03" x2="205.82" y2="941.06" gradientTransform="translate(42 -645.89)" gradientUnits="userSpaceOnUse"><stop offset="0" stop-color="#201b59" stop-opacity="0.91"/><stop offset="0.56" stop-color="#fc0" stop-opacity="0"/></linearGradient><linearGradient id="linear-gradient-3" x1="131.55" y1="916.18" x2="148.47" y2="932.45" xlink:href="#linear-gradient-2"/><linearGradient id="linear-gradient-4" x1="-12.84" y1="1319.9" x2="-24.53" y2="1333.6" gradientTransform="translate(-43.37 -1073.48) rotate(-12.97)" gradientUnits="userSpaceOnUse"><stop offset="0.27" stop-color="#201b59" stop-opacity="0.91"/><stop offset="0.56" stop-color="#ff735f" stop-opacity="0"/></linearGradient><linearGradient id="linear-gradient-5" x1="126.41" y1="949.42" x2="117.71" y2="931.76" gradientTransform="translate(42 -645.89)" xlink:href="#linear-gradient-4"/><clipPath id="clip-path" transform="translate(-9.09 -10.35)"><path class="cls-1" d="M360.1,284.3c.3-1.9.9-3.6,2.5-4.5,2.2-1.3,5-.2,7.6-.7,7.1-1.3,7-11.2,6.9-16.6-.1-3.5-.2-6.9-.5-10.4a5.83,5.83,0,0,0-.6-2.6,3.94,3.94,0,0,0-4.4-1.4c-3.1.9-4.8,4.2-5.4,7.4s-.3,6.5-1.1,9.6a5.09,5.09,0,0,1-.7,1.7,3.74,3.74,0,0,1-1.5,1.3,3,3,0,0,1-2.9,0c-1-.6-.8-1.4-.8-2.4a20.68,20.68,0,0,0-.3-3.5c-.3-2.6-.6-5.2-.8-7.8-.5-5.1-.9-10.2-1.4-15.4a18.44,18.44,0,0,0-1.7-6.9c-5.1-9.1-12.8-1.1-13.5,5.5-1.6,15.1,6.2,29.3,5.6,44.3a4.33,4.33,0,0,1-.4,1.9c-1.2,2.4-5,2-6.7.6-2.7-2.1-1.8-6.8-1.8-9.5,0-2.3-.7-4.8-2.9-5.9-2.5-1.2-5.7.2-7.1,2.5-1.8,2.9-1.6,7.8-1.4,11a13.18,13.18,0,0,0,2.1,6.6,8.2,8.2,0,0,0,6.1,3.6c1.5.1,3.1-.2,4.2.7,1.4,1.1.9,3,.9,4.6.1,3.2,2.9,6,6.1,7.4s6.9,1.6,10.4,1.8c3-4.8,3.2-10.4,3.4-15.8A56.07,56.07,0,0,1,360.1,284.3Z"/></clipPath></defs><title>login</title><g id="OBJEKTS"><path class="cls-2" d="M75.7,170.6h75a23,23,0,0,1,23,23v30.9h-98a23,23,0,0,1-23-23h0v-7.9a23,23,0,0,1,23-23Z" transform="translate(-9.09 -10.35)"/><path class="cls-3" d="M276.1,364.7c27.6-9.7,54.2-26.3,71.7-50.6,21.4-29.6,19.5-63.2,23.9-97.9,1.8-14.1,11.2-22.2,16.8-34.6,11.8-26.3,7.6-65.9-17.2-83.8-15.3-11-30.1-12.2-38.4-31.4-4.6-10.6-7.2-22.2-14.3-31.3-10.2-13.2-27.7-18.4-44.1-21-19.2-3-37.9-2.3-57.1-2.9-20.5-.6-41.3,0-61.2,5.4-27,7.4-56.7,26.7-61.4,56.2-2,12.6.6,26.1-4.2,37.9-7.2,17.8-26.4,23.9-40.8,34.4-15.4,11.3-25.4,29-29.8,47.3-7.5,31.3-2,66,12.6,94.4,15.6,30.4,40.9,56.3,71.5,71.5,24,11.9,57.2,15.4,84.3,17.1C218,377.3,248.2,374.5,276.1,364.7Z" transform="translate(-9.09 -10.35)"/><path class="cls-4" d="M346.6,242.6c-.2-44.7-12.5-87.6-48.9-116.4-44.9-35.5-107.6-35.1-153.4-1.9-30,21.7-51,54.3-62.8,89.4S66.7,286.3,67.9,323.3l273,.9,3.4-37.6C345.6,272,346.6,257.3,346.6,242.6Z" transform="translate(-9.09 -10.35)"/><path class="cls-5" d="M90.7,165.6h75a23,23,0,0,1,23,23v30.9h-98a23,23,0,0,1-23-23v-7.9a23,23,0,0,1,23-23Z" transform="translate(-9.09 -10.35)"/><path class="cls-5" d="M152.5,59.4H257.2a30.47,30.47,0,0,1,30.5,30.4h0v40.8H152.5A30.47,30.47,0,0,1,122,100.2h0V89.8a30.41,30.41,0,0,1,30.5-30.4Z" transform="translate(-9.09 -10.35)"/><path class="cls-6" d="M114.4,316.1l-1.2-.9c-1.4-1.1-1.7-3.1-1.9-4.9-1.8-22,1.5-44.1.4-66.2-.2-5.3-4.5-2.7-8-2-.5.1-7.3,1.4-7.3.6-.6,6.3-1.4,13-5.6,17.7-2.9,3.3-7,5.1-10.6,7.6-13.6,9.2-21.5,26.9-23.4,42.9,0-.4-.1-.7-.1-1.1q-.45-4.8-.6-9.6-.45-10.05-.3-20.1c.1-5,.7-10.5-2.3-14.8-2.6-3.7-5.4-4-9-4.3-1-2-.8-5.9-.8-7.7,0-2.9.5-6.1,2.6-8.3,3.4-3.6,8.7-1.4,13.1-2.5,9.8-2.5,6.3-15,5.7-22.2-.4-4.4-7.4-4.5-7,0,.3,3.6,1,7.4,1,11,0,2.3,0,3.8-2.4,4.6a19.3,19.3,0,0,1-3.4,0c-5.1,0-9.5,1.1-12.8,5.2-3.6,4.5-4.2,10.3-3.6,15.8.4,4.2.6,10,5.7,10.9,4.7.8,6.2,1.8,6.3,6.8.1,3.4-.2,6.8-.2,10.2,0,7.7.2,15.3.8,23,.3,4.4-.4,12.3,3.3,15.6a5.14,5.14,0,0,0,5.9.8c5.8.3,19.6-.5,21.1-.5H97.6c3,0,8.2,1,11.1-.5,1.5-.8,4.3-2.2,5.4-3.5A2.64,2.64,0,0,0,114.4,316.1Z" transform="translate(-9.09 -10.35)"/><path class="cls-7" d="M112,250.5c0-1.8,0-3.6-.1-5.4a3.08,3.08,0,0,0-.1-1c-.1-.4-.2-.7-.3-1.1-1.3-2.5-5.9-.3-7.7.5a29.72,29.72,0,0,0-5.6,3.6,7.54,7.54,0,0,0-2.7,2.9c-.6,1.3-.2,3.3-.1,4.7a5,5,0,0,0,.9,2.9,2.08,2.08,0,0,0,2.7.7,9,9,0,0,0,.9,3.2,3,3,0,0,0,2,1.5c.6.2.5.1.7.6h0a5,5,0,0,0,.5,1.3v.1a1.56,1.56,0,0,0,.6.8,2.18,2.18,0,0,0,.5.3h0a3.58,3.58,0,0,0,1.1.4,2.67,2.67,0,0,0,2.6-1.1,5,5,0,0,0,.4-3.2,1.92,1.92,0,0,0,1.8-1.3,6.72,6.72,0,0,0,.3-2.8c0-1.1,0-2.1-.1-3.2C112.4,255.2,112,252,112,250.5Z" transform="translate(-9.09 -10.35)"/><path class="cls-8" d="M88.9,286.3a11.48,11.48,0,0,1,5.4,10.6c-.4,4.3-3.9,7.8-7,10.4s-7,5.3-9.1,9.1c2.2-.3,4.4-.4,6.6-.5,1.9-.1,4,.1,5.1,1.6s.5,3.8.8,5.7a.62.62,0,0,0,.7-.1c.2.5.1.5.6.5a5.55,5.55,0,0,0,4.1-3,17.39,17.39,0,0,0,1.3-5.1,107.17,107.17,0,0,0,.7-18.8,13,13,0,0,0-1.3-5.8C95,288.2,92.2,286.1,88.9,286.3Z" transform="translate(-9.09 -10.35)"/><path class="cls-6" d="M80.2,228.2l-.3-.9c0,.2.8.5,1,.5l1.1.6,2.1,1.2a23.92,23.92,0,0,1,2.1,1.3c.3.2.5.4.8.3a4.71,4.71,0,0,0,1.5-.6l1.8-.7,3.6-1.4c2.4-.9,4.8-1.9,7.1-2.9.9-.4,3-.9,3.3-1.9a2.08,2.08,0,0,0,.1-1.1c.1-1.9.5-5.5.5-5.5a19.27,19.27,0,0,1,1.6,1.5c.5.6,1,1.2,1.5,1.9a34.19,34.19,0,0,1,2.6,4,55.29,55.29,0,0,1,4.2,9.3c.9,2.6,1.4,5.2-.3,7.5s-4.2,3.5-6.5,4.8c-4.8,2.5-9.9,5.2-15.3,5.7a7.79,7.79,0,0,1-4-.5,6.78,6.78,0,0,1-2.8-3C82.7,241.9,82,234.9,80.2,228.2Z" transform="translate(-9.09 -10.35)"/><path class="cls-9" d="M106.9,242c-1.6-.5-3.2-.6-4.8-1.1.1-.2.2-.3.3-.5.2-.4.5-.8.7-1.3.1-.2.1-.6-.2-.7h-.1c-.5-.2-1.4.3-1.9.5a14.72,14.72,0,0,0-2.2,1,.57.57,0,0,0-.2.7c.1.1.2.2.3.2l2,.6a31.61,31.61,0,0,0-1.7,5.2.51.51,0,0,0,1,.2,42,42,0,0,1,1.7-5c1.6.5,3.3.6,4.9,1.1C107.2,243.2,107.5,242.2,106.9,242Z" transform="translate(-9.09 -10.35)"/><path class="cls-9" d="M93.1,237.8a.64.64,0,0,0-.6,0,.4.4,0,0,0-.4.2.76.76,0,0,0-.2.4.35.35,0,0,1-.1.2.6.6,0,0,0,.1.4.88.88,0,0,0,1.2.5,1,1,0,0,0,.5-.4,1,1,0,0,0-.3-1.3C93.3,237.9,93.2,237.8,93.1,237.8Z" transform="translate(-9.09 -10.35)"/><path class="cls-9" d="M108.1,231.8a.64.64,0,0,0-.6,0,.4.4,0,0,0-.4.2.76.76,0,0,0-.2.4.35.35,0,0,1-.1.2.6.6,0,0,0,.1.4.88.88,0,0,0,1.2.5,1,1,0,0,0,.5-.4,1,1,0,0,0-.3-1.3C108.3,231.9,108.2,231.8,108.1,231.8Z" transform="translate(-9.09 -10.35)"/><path class="cls-10" d="M134,296.7c-1.9,6.5-3.5,14.1.3,19.7,4.6,6.8,15.3,6.7,22,2s10.3-12.6,13.4-20.2c5.2-12.8,9.8-25.9,11.6-39.6,1.1-8,.1-17.9-7.1-21.4-11.2-5.4-20.7,3.2-24.3,12.6Q141.05,272.9,134,296.7Z" transform="translate(-9.09 -10.35)"/><path class="cls-11" d="M167.9,214.2a73,73,0,0,0-7.7,9.9c-3.1,4.9-5.3,10.1-7.7,15.4-.9,1.8-8.1,17.8-6.5,18.9,9.1,6.5,18.1,13.7,28.6,17.7.4.1-1.6,7.8-1.8,8.5-.7,2.8-1.4,5.7-1.9,8.5-1.1,5.7-2.1,11.5-3.1,17.2-.6,3.2-1.1,6.4-1.6,9.6-.2,1.4,45.2,4.5,49.3,4.5,12,.2,30.9,3.5,38.2-8.7a36,36,0,0,0,3.4-9.5,234.25,234.25,0,0,0,6-59,65,65,0,0,0-1.5-13.9c-1.6-6.6-5.1-12.5-8.7-18.1-3.3-5.2-8.5-8-14-10.7-16.5-7.9-36.5-10.5-53.2-3.1A57,57,0,0,0,167.9,214.2Z" transform="translate(-9.09 -10.35)"/><path class="cls-10" d="M243.5,261c-.5,1-.9,2.1-1.4,3.1-1.8,4-6.1,11-6.1,15.4a40.89,40.89,0,0,0-1.8,19.9,56.93,56.93,0,0,0,2.2,7.8,33.66,33.66,0,0,0,4.3,9.2c1.8,2.4,6.2,6.3,9.6,5s6.2-7.8,7.5-11c8-18.8,11.2-39.5,13.1-59.8a10.51,10.51,0,0,0-3.1-9.7c-1.8-2.2-3.8-4.5-6.5-5a8,8,0,0,0-7.2,2.9,24.43,24.43,0,0,0-4,7Z" transform="translate(-9.09 -10.35)"/><path class="cls-11" d="M258,258.9c-1.5-.4-23.1-5.7-23.1-3,.2-11.7.8-23.4,1.9-35.1a37.08,37.08,0,0,1,2.2-10.9c1.4-3.4,4-6.6,7.4-7.9a14,14,0,0,1,8.1-.3,23.81,23.81,0,0,1,17.7,17.2,41.33,41.33,0,0,1,.9,11.1c-.1,11-.9,22-1.6,33C266.9,262.9,262.4,260.1,258,258.9Z" transform="translate(-9.09 -10.35)"/><path class="cls-12" d="M268.9,199.5a15.47,15.47,0,0,1,.6,3.1c.5,7-4.2,12.9-8.8,17.6-1.8,1.9-4.4,3.1-6,5.1-1.9,2.2-1.8,5.8-5,6.8a4,4,0,0,1-4.8-2.9,4.24,4.24,0,0,1,.3-2.7,28.05,28.05,0,0,1,2.4-5.9c.9-1.4,2.7-2.2,4.1-3a11.29,11.29,0,0,0,5.3-7.9c.9-5.9,0-12.6,2.1-18.2a6.33,6.33,0,0,1,1.6-2.6,3.1,3.1,0,0,1,2.9-.7c1.4.5,2,2.2,2.5,3.6C266.9,194.4,268.2,196.9,268.9,199.5Z" transform="translate(-9.09 -10.35)"/><path class="cls-12" d="M261.2,273.8c.7,12.6.5,25.5-2.9,37.8-1,3.7-2.7,8.9-6.3,11-4,2.3-10.3.4-14-1.7a17.58,17.58,0,0,1-6.3-5.5c-2.5-3.7-2.6-8.5-2.3-13,.8-12,3.7-23.1,6.1-34.8,2.5-12.7,5.5-25.3,8.9-37.9,1.4-5.3,3.3-9.3,7.8-12.7,3.2-2.4,8.5-5.6,8.8.7C261.8,236.3,260.2,255,261.2,273.8Z" transform="translate(-9.09 -10.35)"/><path class="cls-10" d="M210.8,209.8a9.49,9.49,0,0,0-.9,2.1,7.08,7.08,0,0,0,0,2.9c.9,7.3,2.4,14.5,10.3,16.8a21.79,21.79,0,0,0,16.4-1.7,14.32,14.32,0,0,0,4.2-3.1,6.84,6.84,0,0,0,2.1-4.7c5.3,1.2,10.7-4.2,13.4-8,6.3-8.8,8.4-19.9,7.4-30.5-.2-2.6-.6-5.4-2.2-7.4a15.68,15.68,0,0,0-4.2-3.5c-7.2-4.6-14.9-4.9-22.7-1.2-7.1,3.3-12.1,10.4-15.5,17.2-1.4,2.9-1.6,6.6-2.8,9.7a58.48,58.48,0,0,1-5,10.4Z" transform="translate(-9.09 -10.35)"/><path class="cls-9" d="M220.7,172.8a21.41,21.41,0,0,1,7-9c5.4-3.8,13.2-3.1,19.3-1.7,3.5.8,7,2.3,10.6,2.3,3.3,0,6.7-3.3,9.9-2.2a4.33,4.33,0,0,1,2.8,3.2c.5,2.4-1,4.7-2.1,6.9a41.59,41.59,0,0,1-2.8,5.1,10.22,10.22,0,0,1-6.5,4,11.33,11.33,0,0,1-2.6-.1c-5.2-.5-9.5-2-13.5,2.1-2.7,2.8-4,6.6-6,9.9a7.19,7.19,0,0,1-1.8,2.1,10.64,10.64,0,0,1-3.5.9c-5.1,1.2-8.5,9.8-13.9,7.9-4.6-1.6-3.6-5.8-1.8-9.1,2.3-4.2,1.9-9.2,2.5-13.9A29.1,29.1,0,0,1,220.7,172.8Z" transform="translate(-9.09 -10.35)"/><path class="cls-10" d="M222,192.6a13.43,13.43,0,0,0-2.2,5.4,10.57,10.57,0,0,0,0,5,4.82,4.82,0,0,0,3.5,3.4,4.64,4.64,0,0,0,3.7-1.2c2.4-2.1,5.2-8.5,4.5-11.8C230.5,188.8,224.3,189.6,222,192.6Z" transform="translate(-9.09 -10.35)"/><path class="cls-13" d="M226.7,194.4a5.66,5.66,0,0,0-3,2.9,19.09,19.09,0,0,0-1.1,4.1" transform="translate(-9.09 -10.35)"/><path class="cls-9" d="M260.6,195.3a1.16,1.16,0,0,1-.9,1.4,1.24,1.24,0,0,1-1.4-.9,1.2,1.2,0,0,1,.9-1.4h0a1.18,1.18,0,0,1,1.4.9Z" transform="translate(-9.09 -10.35)"/><path class="cls-9" d="M247.5,196.4a1.13,1.13,0,0,1-1,1.3h0a1.22,1.22,0,1,1-.4-2.4,1.32,1.32,0,0,1,1.4,1.1Z" transform="translate(-9.09 -10.35)"/><path class="cls-14" d="M230.5,292.5c-.5,3.2-.9,6.5-1.1,9.8-.3,4.5-.2,9.2,2.3,13a18.46,18.46,0,0,0,6.3,5.5c3.7,2.1,10,4,14,1.7,3.5-2,5.2-7.3,6.3-11a87.48,87.48,0,0,0,3-19Z" transform="translate(-9.09 -10.35)"/><path class="cls-15" d="M194.6,273.1l-5.5-15.6c.1.4-1,2.1-1.2,2.5l-1.2,2.7c-.8,1.9-1.7,3.7-2.5,5.5a112,112,0,0,1-5.2,10.4,12.62,12.62,0,0,1-4.4-2.4c-.5,3.2-1.5,6.1-2.2,9.3-.3,1.6-.6,3.3-.9,4.9-.1.8-.3,1.6-.5,2.5a15.72,15.72,0,0,1-.4,2.3,107.66,107.66,0,0,0,23.1-18.3,3.74,3.74,0,0,0,1.2-2A2.89,2.89,0,0,0,194.6,273.1Z" transform="translate(-9.09 -10.35)"/><path class="cls-9" d="M261.5,189a6.89,6.89,0,0,0-4.6,1.1,1.41,1.41,0,0,0,1.3,2.5,4.24,4.24,0,0,1,3.1-.7,1.45,1.45,0,0,0,1.4-1.5,1.4,1.4,0,0,0-1.2-1.4Z" transform="translate(-9.09 -10.35)"/><path class="cls-9" d="M250.1,191.2c-2-.9-4.1-.5-6.1,0-1.5.4-1.2,2.9.4,2.5s3.2-.9,4.7-.2A1.25,1.25,0,0,0,250.1,191.2Z" transform="translate(-9.09 -10.35)"/><path class="cls-16" d="M232.5,217.9l-.3,7.8c0,1.4-.1,2.7-.1,4.1,0,.2-.1.7-.1,1.2a25.42,25.42,0,0,0,4.7-1.4,10.14,10.14,0,0,0,5.3-4.5,11.42,11.42,0,0,0,.9-2.6C239.3,221.8,235.2,220.4,232.5,217.9Z" transform="translate(-9.09 -10.35)"/><path class="cls-10" d="M205,323.8c13.5,1.6,28.5,3.4,41.5-.5a52,52,0,0,0-6.9-8.6,17.68,17.68,0,0,0-9.7-4.9,22.56,22.56,0,0,0-5.8.2c-3.4.4-7.7,2.2-11.1,1.9-2.8-.2-6.5-2.6-9.2-3.7-18.1-7.2-39.6-16.9-59.5-11.7-10,2.6-16,11-9.1,20.4,3.9,5.3,10.1,4.3,16.2,4.4,16.4.3,32.9.1,49.2,2Z" transform="translate(-9.09 -10.35)"/><path class="cls-9" d="M245.9,211.8l-1-.2a13.4,13.4,0,0,1,2.3-5,7.15,7.15,0,0,1,4.8-2.9,4.73,4.73,0,0,1,1.7.1,4.52,4.52,0,0,1,2.5,2.4l-.9.4a3.54,3.54,0,0,0-1.9-1.9,2.88,2.88,0,0,0-1.3-.1,6,6,0,0,0-4.1,2.5A10.52,10.52,0,0,0,245.9,211.8Z" transform="translate(-9.09 -10.35)"/><path class="cls-17" d="M171,290.5c-.1-.2-.3-.5-.4-.7-.9-1.6-1.8-3.1-2.7-4.7a32.46,32.46,0,0,1-3.9,3.5,31.7,31.7,0,0,0-5.2,4.5c-1,1-1.9,2.1-2.8,3.1.2.6.5,1.1.7,1.7a3.55,3.55,0,0,0,.4.9c.6-.2,1.3-.4,1.9-.6,3.2-.9,7.5-2.2,11-1.7.2-2,.9-3.8,1.1-5.8C171,290.7,171,290.6,171,290.5Z" transform="translate(-9.09 -10.35)"/><path class="cls-12" d="M249.9,215.8a2.23,2.23,0,0,0-1.7.9.75.75,0,0,0,.1.8.43.43,0,0,0,.4.4,1.78,1.78,0,0,0,1.8-.7.78.78,0,0,0,0-1.1A.86.86,0,0,0,249.9,215.8Z" transform="translate(-9.09 -10.35)"/><path class="cls-12" d="M250.9,188.2a9,9,0,0,0-2.2-.6c-.6-.1-.6.9,0,1a11.7,11.7,0,0,1,2,.5C251.2,189.4,251.5,188.5,250.9,188.2Z" transform="translate(-9.09 -10.35)"/><path class="cls-12" d="M257.1,186.8l-1.6.5a.52.52,0,0,0,.3,1l1.6-.5C258,187.5,257.7,186.6,257.1,186.8Z" transform="translate(-9.09 -10.35)"/><path class="cls-18" d="M142.5,47.4H247.2a30.47,30.47,0,0,1,30.5,30.4h0v40.8H142.5A30.47,30.47,0,0,1,112,88.2h0V77.8a30.41,30.41,0,0,1,30.5-30.4Z" transform="translate(-9.09 -10.35)"/><path class="cls-19" d="M102.7,135.6h75a23,23,0,0,1,23,23v30.9h-98a23,23,0,0,1-23-23v-7.9a23,23,0,0,1,23-23Z" transform="translate(-9.09 -10.35)"/><path class="cls-20" d="M144.8,310.9a15.81,15.81,0,0,1-3.8-.4l.4-2.1c4.4.9,11.5,0,13.5-4.2a4.89,4.89,0,0,0,0-4.1,5,5,0,0,0-3.1-2.6c-2.7-.8-6.2.1-8.5,1.4l-1.1-1.9c2.5-1.4,6.7-2.7,10.2-1.6a7.35,7.35,0,0,1,4.4,3.7,7,7,0,0,1,0,6C154.8,309.4,149.4,310.9,144.8,310.9Z" transform="translate(-9.09 -10.35)"/><path class="cls-18" d="M113.5,290.2h34.8v14.2a13.66,13.66,0,0,1-13.7,13.7h-7.4a13.66,13.66,0,0,1-13.7-13.7h0V290.2Z" transform="translate(-9.09 -10.35)"/><path class="cls-19" d="M158,320.2H104.4a1.58,1.58,0,0,1-1.6-1.6h0a1.58,1.58,0,0,1,1.6-1.6H158a1.58,1.58,0,0,1,1.6,1.6h0A1.58,1.58,0,0,1,158,320.2Z" transform="translate(-9.09 -10.35)"/><g class="cls-21"><path class="cls-22" d="M360.1,284.3c.3-1.9.9-3.6,2.5-4.5,2.2-1.3,5-.2,7.6-.7,7.1-1.3,7-11.2,6.9-16.6-.1-3.5-.2-6.9-.5-10.4a5.83,5.83,0,0,0-.6-2.6,3.94,3.94,0,0,0-4.4-1.4c-3.1.9-4.8,4.2-5.4,7.4s-.3,6.5-1.1,9.6a5.09,5.09,0,0,1-.7,1.7,3.74,3.74,0,0,1-1.5,1.3,3,3,0,0,1-2.9,0c-1-.6-.8-1.4-.8-2.4a20.68,20.68,0,0,0-.3-3.5c-.3-2.6-.6-5.2-.8-7.8-.5-5.1-.9-10.2-1.4-15.4a18.44,18.44,0,0,0-1.7-6.9c-5.1-9.1-12.8-1.1-13.5,5.5-1.6,15.1,6.2,29.3,5.6,44.3a4.33,4.33,0,0,1-.4,1.9c-1.2,2.4-5,2-6.7.6-2.7-2.1-1.8-6.8-1.8-9.5,0-2.3-.7-4.8-2.9-5.9-2.5-1.2-5.7.2-7.1,2.5-1.8,2.9-1.6,7.8-1.4,11a13.18,13.18,0,0,0,2.1,6.6,8.2,8.2,0,0,0,6.1,3.6c1.5.1,3.1-.2,4.2.7,1.4,1.1.9,3,.9,4.6.1,3.2,2.9,6,6.1,7.4s6.9,1.6,10.4,1.8c3-4.8,3.2-10.4,3.4-15.8A56.07,56.07,0,0,1,360.1,284.3Z" transform="translate(-9.09 -10.35)"/><path class="cls-13" d="M350.6,228.5c3.6,25,6.7,50.5,2.3,75.4" transform="translate(-9.09 -10.35)"/><path class="cls-13" d="M347.1,228.4a68.46,68.46,0,0,0-2,14.1c0,9.1,3.9,17.7,5.4,26.7,1.7,10,.4,20.2-.8,30.3" transform="translate(-9.09 -10.35)"/><path class="cls-13" d="M354.9,272.6c4.4-.6,9.6-1.2,12.3-4.7a5.07,5.07,0,0,0,.9-1.6c.7-2.4.4-5,.4-7.5v-9.5" transform="translate(-9.09 -10.35)"/><path class="cls-13" d="M351,289.2c-3.9.6-8.2,1.2-11.6-.7a9.6,9.6,0,0,1-4.2-5.3,18.5,18.5,0,0,1-.9-6.6,43.73,43.73,0,0,1,.6-7.2" transform="translate(-9.09 -10.35)"/><path class="cls-13" d="M355,276.6a65.91,65.91,0,0,0,14.5-3.8,7.2,7.2,0,0,0,2.7-1.5,6.19,6.19,0,0,0,1.4-2.8c.7-2.3,1-17.8.2-21.5" transform="translate(-9.09 -10.35)"/></g><polygon class="cls-23" points="327.31 288.45 356.71 287.85 353.71 309.65 331.31 309.65 327.31 288.45"/><path class="cls-19" d="M205.2,315.6H329a2.48,2.48,0,0,1,2.5,2.5v.9a2.48,2.48,0,0,1-2.5,2.5H205.2a2.48,2.48,0,0,1-2.5-2.5v-.9A2.48,2.48,0,0,1,205.2,315.6Z" transform="translate(-9.09 -10.35)"/><path class="cls-19" d="M331.9,321.4h-110l9.6-63.2a4.42,4.42,0,0,1,4.4-3.8H337.2a4.18,4.18,0,0,1,4.2,4.3,2,2,0,0,1-.1.7Z" transform="translate(-9.09 -10.35)"/><circle class="cls-24" cx="277.81" cy="273.05" r="5.3"/><path class="cls-2" d="M292.3,249.5a37.72,37.72,0,0,1-1-8.8,9.87,9.87,0,0,1,2.4-7.2,34.06,34.06,0,0,1,4.7-4.6,13.57,13.57,0,0,0,4-15.1" transform="translate(-9.09 -10.35)"/><path class="cls-2" d="M301.6,241c-.6-2.5.8-5,2.5-6.9s3.9-3.4,5.4-5.4c3.2-4.4,3.1-8.5,2.5-16.7-.4-5.8-.3-12.3,3.8-16.3" transform="translate(-9.09 -10.35)"/><path class="cls-18" d="M48.9,319.3H368.3a3,3,0,0,1,3,3v1a3,3,0,0,1-3,3H48.9a3,3,0,0,1-3-3v-1A3,3,0,0,1,48.9,319.3Z" transform="translate(-9.09 -10.35)"/><path class="cls-25" d="M401,137.7c2.5,15.7,3.5,32.5-3.7,46.7-4,7.9-10.3,14.4-13.9,22.6-3.8,8.7-5.2,17.7-6.1,27.1" transform="translate(-9.09 -10.35)"/><path class="cls-25" d="M77.3,111.5c-10,12.1-24.8,18.9-36.8,29a86.51,86.51,0,0,0-30.4,66.9" transform="translate(-9.09 -10.35)"/><path class="cls-25" d="M296.3,11.3a61.7,61.7,0,0,1,37.2,33" transform="translate(-9.09 -10.35)"/><path class="cls-25" d="M68.7,345.8a135.53,135.53,0,0,0,79.8,33" transform="translate(-9.09 -10.35)"/><path class="cls-25" d="M288.1,351.6c5.4-2.4,10.6-5.1,15.7-8" transform="translate(-9.09 -10.35)"/><path class="cls-25" d="M215.1,366.3c21.3-.9,39.7-2,62.7-11" transform="translate(-9.09 -10.35)"/><text class="cls-26" transform="translate(127.61 93.94)">LOG</text><text class="cls-27" transform="translate(89.37 174.15) scale(1.65 1)">IN</text></g></svg>