<?xml version="1.0" encoding="utf-8"?>
<!-- Generator: Adobe Illustrator 22.0.1, SVG Export Plug-In . SVG Version: 6.00 Build 0)  -->
<svg version="1.1" xmlns="http://www.w3.org/2000/svg" xmlns:xlink="http://www.w3.org/1999/xlink" x="0px" y="0px"
	 viewBox="0 0 969.1 314.2" style="enable-background:new 0 0 969.1 314.2;" xml:space="preserve">
<style type="text/css">
	.st0{fill:#183D61;}
	.st1{fill:#B6DDDB;}
	.st2{opacity:7.000000e-02;fill:#183D61;}
	.st3{fill:#FFFFFF;}
	.st4{opacity:6.000000e-02;fill:none;stroke:#FFFFFF;stroke-width:2;stroke-miterlimit:10;}
</style>
<g id="Layer_1">
	<path class="st0" d="M798.8,78h28.6v11.5H785V19h13.7V78z"/>
	<path class="st0" d="M880,89.5h-10.9l-1-3.4c-4.8,3-10.5,4.4-15.8,4.4c-9.7,0-13.9-6.3-13.9-15c0-10.2,4.7-14.2,15.5-14.2h12.8
		v-5.3c0-5.6-1.6-7.6-10.1-7.6c-4.8,0-10,0.6-14.7,1.6l-1.6-9.6c5-1.4,12.3-2.4,18.2-2.4c16.7,0,21.6,5.6,21.6,18.2V89.5z
		 M866.7,70.5h-9.8c-4.4,0-5.6,1.1-5.6,5c0,3.5,1.2,5.1,5.3,5.1c3.9,0,7.5-1.2,10-2.6V70.5z"/>
	<path class="st0" d="M939.8,70.2c0,12.2-3.9,20.4-24.4,20.4c-5.3,0-14-0.5-20.6-1.8V18.5l13.3-1.8v24.3c3.9-1.6,9.9-3,15.7-3
		c11.5,0,16,6.6,16,17.3V70.2z M916,79.8c8.7,0,10.5-3.3,10.5-9.2V55.1c0-4-1.9-6.2-6.8-6.2c-3.7,0-8.4,1.4-11.7,2.9v27.6
		C910.4,79.7,913.2,79.8,916,79.8"/>
	<g>
		<path class="st0" d="M58.9,160.4c-15.2,0-32.8-3.8-41.6-8l4.4-19.8c12.4,3.8,24.4,6.2,37.6,6.2c18.2,0,21.2-3.8,21.2-16.6
			c0-14.8-0.4-16-24.4-21.2c-32.2-7.2-36.6-13.4-36.6-41.6c0-24.2,11-36.2,44.8-36.2c11.6,0,25.6,1.4,38.8,4.4l-2.8,21.2
			c-11-2.4-24-4-35.6-4c-17,0-20,3.6-20,15.2c0,15.2,0.4,15.6,23.4,21.2c35.8,8.6,37.6,14.4,37.6,41
			C105.7,147.4,98.3,160.4,58.9,160.4z"/>
		<path class="st0" d="M187.3,158.4v-68c0-5.2-2.2-7.8-7.8-7.8c-6,0-16.6,3.6-25.4,8.2v67.6h-24.4V21.2l24.4-3.4v50.6
			c10.8-5.6,25.2-9.4,35.6-9.4c16.2,0,22,11.4,22,28.8v70.6H187.3z"/>
		<path class="st0" d="M238.7,47.2V19h24.4v28.2H238.7z M238.7,158.4V61h24.4v97.4H238.7z"/>
		<path class="st0" d="M373.7,126c0,21.6-9.6,34.4-32.2,34.4c-8.6,0-18.4-1.2-26-2.8v40.2l-24.4,3.4V61h19.4l2.4,8.2
			C321.5,63,331.5,59,343.7,59c19.6,0,30,11.6,30,33.8V126z M315.5,137c6.4,1.4,14.6,2.6,21.6,2.6c8.8,0,12.2-4.2,12.2-13V92.2
			c0-8-3-12.4-12-12.4c-8,0-16.6,4-21.8,8.8V137z"/>
		<path class="st0" d="M480.3,126c0,21.6-9.6,34.4-32.2,34.4c-8.6,0-18.4-1.2-26-2.8v40.2l-24.4,3.4V61h19.4l2.4,8.2
			C428.1,63,438.1,59,450.3,59c19.6,0,30,11.6,30,33.8V126z M422.1,137c6.4,1.4,14.6,2.6,21.6,2.6c8.8,0,12.2-4.2,12.2-13V92.2
			c0-8-3-12.4-12-12.4c-8,0-16.6,4-21.8,8.8V137z"/>
		<path class="st0" d="M504.3,47.2V19h24.4v28.2H504.3z M504.3,158.4V61h24.4v97.4H504.3z"/>
		<path class="st0" d="M614.3,158.4v-68c0-5.2-2.2-7.8-7.8-7.8c-6,0-16.6,3.6-25.4,8.2v67.6h-24.4V61h18.6l2.4,8.2
			c12.2-6,27.6-10.2,39-10.2c16.2,0,22,11.4,22,28.8v70.6H614.3z"/>
		<path class="st0" d="M693.3,132.2c-3.2,2-5.8,4.8-5.8,7.8c0,2.6,1.6,3.8,5.4,4.2c10.8,1.2,16.8,1.8,28.2,3
			c15.8,1.8,20.8,9.6,20.8,23.6c0,20.8-7.6,29-44,29c-11.2,0-26.6-1.6-37.6-5l3-18.2c10.4,2.6,21.4,4.2,32.8,4.2
			c19.4,0,23.2-1.4,23.2-7.8c0-6-1.8-7-9.2-7.8c-11.2-1.2-15.8-1.8-28.2-3.2c-13.8-1.6-19.2-6.2-19.2-18.6c0-8,5.4-13.2,10.2-16.6
			c-9-5.4-13.2-14.4-13.2-26.2v-9.2c0.4-20.2,11-32.4,39.2-32.4c6.6,0,11.8,0.8,16.6,2h30v12.2c-3.4,1-7.4,2-10.8,3
			c2.2,4.2,3.4,9.6,3.4,15.2v9.2c0,19.8-12,31.8-39.2,31.8C696.9,132.4,695.1,132.4,693.3,132.2z M698.9,78.6
			c-12,0-16.2,4.4-16.2,13.6v7.4c0,9.6,4.8,13.2,16.2,13.2c11.6,0,16.4-3.8,16.4-13.2v-7.4C715.3,83,711.1,78.6,698.9,78.6z"/>
	</g>
	<path class="st1" d="M770.3,148.5v13.6c0,0,23.3,1,36-6.8c0,0,24.9,14.1,55.5,0.5c0,0,26.4,13.6,57.1,0c0,0,8.5,6.8,34.9,6.8V149
		c0,0-21.2,1-34.9-8.7c0,0-27.5,18.4-57.1,0c0,0-26.4,17.5-55,0C806.8,140.2,789.9,150.9,770.3,148.5z"/>
	<path class="st1" d="M770.3,118v13.6c0,0,23.3,1,36-6.8c0,0,24.9,14.1,55.5,0.5c0,0,26.4,13.6,57.1,0c0,0,8.5,6.8,34.9,6.8v-13.6
		c0,0-21.2,1-34.9-8.7c0,0-27.5,18.4-57.1,0c0,0-26.4,17.5-55,0C806.8,109.8,789.9,120.4,770.3,118z"/>
	<g>
		<path class="st0" d="M29.6,247.6c10.5,0,13.5,5.5,13.5,12.8v17.7c0,7.3-3,12.8-13.5,12.8H15.3v-43.3H29.6z M19.1,287.5h10.5
			c7.3,0,9.6-3,9.6-9.2v-18.1c0-6.2-2.3-9.2-9.6-9.2H19.1V287.5z"/>
		<path class="st0" d="M66.7,262.3c-3.3,1.4-7,3.8-10,5.8v22.8h-3.8v-31.7h3.4l0.2,4.8c3.4-2.2,6.8-4.4,9.8-5.5L66.7,262.3z"/>
		<path class="st0" d="M73.9,253.3v-7h3.8v7H73.9z M73.9,290.9v-31.7h3.8v31.7H73.9z"/>
		<path class="st0" d="M101.4,290.9h-5.8l-10.7-31.7h3.8l9.8,29l9.8-29h3.8L101.4,290.9z"/>
		<path class="st0" d="M119.4,253.3v-7h3.8v7H119.4z M119.4,290.9v-31.7h3.8v31.7H119.4z"/>
		<path class="st0" d="M152.3,290.9v-25.6c0-2.3-1.2-3.2-3.4-3.2c-2.6,0-8.2,1.6-12.2,3.6v25.2H133v-31.7h3.3l0.3,2.9
			c3.4-1.6,9-3.5,12.9-3.5c4.9,0,6.7,2.8,6.7,7.2v25.2H152.3z"/>
		<path class="st0" d="M176.9,281.2c-1.6,0-2.9-0.1-4.2-0.4c-1.8,1.4-2.5,2.7-2.5,4.2c0,1.2,0.7,2.1,2.9,2.3c4,0.3,4.9,0.4,9.1,0.7
			c5.8,0.5,7.9,3.1,7.9,7.5c0,6.6-3.3,8.8-13.5,8.8c-2.9,0-7.7-0.6-11.1-1.6l0.6-3c3.1,0.7,7.3,1.3,10.7,1.3c8.6,0,9.7-1.8,9.7-5.4
			c0-3.1-1.3-4.4-5.1-4.6c-4-0.3-4.4-0.3-8.6-0.6c-4.7-0.4-6.2-2.8-6.2-5.6c0-1.7,0.7-3.6,3-5.3c-3.2-1.8-4.7-5-4.7-9.5v-0.4
			c0-7.2,3.2-11.1,12.2-11.1c2.1,0,3.8,0.2,5.3,0.7h8.7v2.7l-4,0.3c1.4,1.8,2.1,4.4,2.1,7.4v0.4C189,277.3,185.2,281.2,176.9,281.2z
			 M176.9,261.9c-6.3,0-8.5,1.9-8.5,7.7v0.7c0,6,2.7,7.7,8.5,7.7c5.8,0,8.5-2,8.5-7.7v-0.7C185.4,263.9,183.2,261.9,176.9,261.9z"/>
		<path class="st0" d="M216.6,290.9v-43.3h24.6v3.4h-20.8v16.7h19.4v3.4h-19.4v19.7H216.6z"/>
		<path class="st0" d="M252.6,259.3v25.6c0,2.3,1.2,3.2,3.4,3.2c2.6,0,8.2-1.6,12.2-3.6v-25.2h3.8v31.7h-3.3l-0.3-2.9
			c-3.4,1.6-9,3.5-12.9,3.5c-4.9,0-6.7-2.8-6.7-7.2v-25.2H252.6z"/>
		<path class="st0" d="M299.6,290.3c-1.8,0.7-4.4,1.2-6.6,1.2c-5,0-7.1-1.8-7.1-6.8v-22.2h-6.1v-3.2h6.1v-7.5l3.8-0.5v8h9.7
			l-0.4,3.2h-9.3v21.8c0,2.8,0.4,4,3.6,4c1.8,0,3.8-0.3,5.7-0.9L299.6,290.3z"/>
		<path class="st0" d="M310.8,259.3v25.6c0,2.3,1.2,3.2,3.4,3.2c2.6,0,8.2-1.6,12.2-3.6v-25.2h3.8v31.7h-3.3l-0.3-2.9
			c-3.4,1.6-9,3.5-12.9,3.5c-4.9,0-6.7-2.8-6.7-7.2v-25.2H310.8z"/>
		<path class="st0" d="M353.9,262.3c-3.3,1.4-7,3.8-10,5.8v22.8h-3.8v-31.7h3.4l0.2,4.8c3.4-2.2,6.8-4.4,9.8-5.5L353.9,262.3z"/>
		<path class="st0" d="M371.5,288.3c3.2,0,6.9-0.7,10-1.5l0.6,3.1c-2.9,1-7.1,1.8-10.9,1.8c-8.9,0-11.8-4.6-11.8-11.5v-9.9
			c0-6.5,2.9-11.5,11.8-11.5s11.5,5,11.5,11.5v6.1h-19.6v4C363.2,285.9,365.2,288.3,371.5,288.3z M363.2,272.9h15.9V270
			c0-5.3-1.9-8.1-7.8-8.1c-5.9,0-8.1,2.8-8.1,8.1V272.9z"/>
		<path class="st0" d="M445,251.5l-12.6,33.9h-5.9l-12.6-33.9l-0.9,39.5h-3.8l1.3-43.3h5.6l13.5,35.4l13.4-35.4h5.6l1.3,43.3h-3.8
			L445,251.5z"/>
		<path class="st0" d="M481.3,290.9h-3.2l-0.3-2.5c-3.1,1.9-6.6,3.1-10.7,3.1c-5.6,0-8.2-3.2-8.2-8.8c0-6.7,3.1-8.8,9.3-8.8h9.4
			v-6.2c0-4.4-2.3-5.8-7.5-5.8c-3.1,0-6.4,0.5-9.4,1l-0.6-3.2c2.5-0.7,6.5-1.2,9.8-1.2c8.2,0,11.4,3.3,11.4,9.2V290.9z M477.6,277.3
			h-9.2c-4.4,0-5.7,1.3-5.7,5.5c0,3.7,0.8,5.4,5.2,5.4c3.1,0,6.8-1.2,9.7-3.2V277.3z"/>
		<path class="st0" d="M504.6,262.3c-3.3,1.4-7,3.8-10,5.8v22.8h-3.8v-31.7h3.4l0.2,4.8c3.4-2.2,6.8-4.4,9.8-5.5L504.6,262.3z"/>
		<path class="st0" d="M511.9,253.3v-7h3.8v7H511.9z M511.9,290.9v-31.7h3.8v31.7H511.9z"/>
		<path class="st0" d="M543.2,290.3c-1.8,0.7-4.4,1.2-6.6,1.2c-5,0-7.2-1.8-7.2-6.8v-22.2h-6.1v-3.2h6.1v-7.5l3.8-0.5v8h9.7
			l-0.4,3.2h-9.3v21.8c0,2.8,0.4,4,3.6,4c1.8,0,3.8-0.3,5.7-0.9L543.2,290.3z"/>
		<path class="st0" d="M551,253.3v-7h3.8v7H551z M551,290.9v-31.7h3.8v31.7H551z"/>
		<path class="st0" d="M603.3,290.9v-25.6c0-2.3-1.2-3.2-3.4-3.2c-3,0-8.2,1.6-12.2,3.6v25.2h-3.8v-25.6c0-2.3-1.2-3.2-3.4-3.2
			c-2.6,0-8.2,1.6-12.2,3.6v25.2h-3.8v-31.7h3.3l0.3,2.9c3.4-1.6,9-3.5,12.9-3.5c3.4,0,5.3,1.3,6.1,3.5c3.6-1.7,9.4-3.5,13.3-3.5
			c4.9,0,6.7,2.8,6.7,7.2v25.2H603.3z"/>
		<path class="st0" d="M627.9,288.3c3.2,0,6.9-0.7,10-1.5l0.6,3.1c-2.9,1-7.1,1.8-10.9,1.8c-8.9,0-11.8-4.6-11.8-11.5v-9.9
			c0-6.5,2.9-11.5,11.8-11.5s11.5,5,11.5,11.5v6.1h-19.6v4C619.7,285.9,621.6,288.3,627.9,288.3z M619.7,272.9h15.9V270
			c0-5.3-1.9-8.1-7.8-8.1c-5.9,0-8.1,2.8-8.1,8.1V272.9z"/>
		<path class="st0" d="M675,251.1h-13.3v-3.4h30.5v3.4h-13.3v39.8H675V251.1z"/>
		<path class="st0" d="M704.4,288.3c3.2,0,6.9-0.7,10-1.5l0.7,3.1c-2.9,1-7.1,1.8-10.9,1.8c-8.9,0-11.8-4.6-11.8-11.5v-9.9
			c0-6.5,2.9-11.5,11.8-11.5s11.5,5,11.5,11.5v6.1h-19.6v4C696.2,285.9,698.1,288.3,704.4,288.3z M696.2,272.9H712V270
			c0-5.3-1.9-8.1-7.8-8.1s-8.1,2.8-8.1,8.1V272.9z"/>
		<path class="st0" d="M727.2,280.8c0,5.7,2.3,7.4,8.2,7.4c1.9,0,4.1-0.2,6.8-0.6l0.5,3.1c-2.2,0.6-5.1,0.9-7.2,0.9
			c-8.9,0-12-4.1-12-10.9v-11.1c0-6.8,3.1-10.9,12-10.9c2.1,0,5,0.3,7.2,0.9l-0.5,3.1c-2.7-0.5-4.9-0.6-6.8-0.6
			c-5.9,0-8.2,1.8-8.2,7.4V280.8z"/>
		<path class="st0" d="M770.2,290.9v-25.6c0-2.3-1.2-3.2-3.4-3.2c-2.6,0-8.2,1.6-12.2,3.6v25.2h-3.8v-44.6l3.8-0.5v16.2
			c3.4-1.6,8.9-3.4,12.7-3.4c4.9,0,6.7,2.8,6.7,7.2v25.2H770.2z"/>
		<path class="st0" d="M803.1,290.9v-25.6c0-2.3-1.2-3.2-3.4-3.2c-2.6,0-8.2,1.6-12.2,3.6v25.2h-3.8v-31.7h3.3l0.3,2.9
			c3.4-1.6,9-3.5,12.9-3.5c4.9,0,6.7,2.8,6.7,7.2v25.2H803.1z"/>
		<path class="st0" d="M827.8,291.6c-8.9,0-12.3-5-12.3-11.5v-9.9c0-6.5,3.4-11.5,12.3-11.5s12.3,5,12.3,11.5v9.9
			C840.1,286.6,836.7,291.6,827.8,291.6z M836.3,270c0-5.3-2.6-8-8.5-8s-8.5,2.7-8.5,8v10.2c0,5.3,2.6,8,8.5,8s8.5-2.7,8.5-8V270z"
			/>
		<path class="st0" d="M849,290.9v-44.6l3.8-0.5v45.1H849z"/>
		<path class="st0" d="M873.9,291.6c-8.9,0-12.3-5-12.3-11.5v-9.9c0-6.5,3.4-11.5,12.3-11.5s12.3,5,12.3,11.5v9.9
			C886.2,286.6,882.8,291.6,873.9,291.6z M882.4,270c0-5.3-2.6-8-8.5-8s-8.5,2.7-8.5,8v10.2c0,5.3,2.6,8,8.5,8s8.5-2.7,8.5-8V270z"
			/>
		<path class="st0" d="M906.4,281.2c-1.6,0-2.9-0.1-4.2-0.4c-1.8,1.4-2.5,2.7-2.5,4.2c0,1.2,0.7,2.1,2.9,2.3c4,0.3,4.9,0.4,9.1,0.7
			c5.8,0.5,7.9,3.1,7.9,7.5c0,6.6-3.2,8.8-13.5,8.8c-2.9,0-7.7-0.6-11.1-1.6l0.6-3c3.1,0.7,7.3,1.3,10.7,1.3c8.6,0,9.7-1.8,9.7-5.4
			c0-3.1-1.3-4.4-5.1-4.6c-4-0.3-4.4-0.3-8.6-0.6c-4.7-0.4-6.2-2.8-6.2-5.6c0-1.7,0.7-3.6,3-5.3c-3.2-1.8-4.7-5-4.7-9.5v-0.4
			c0-7.2,3.2-11.1,12.2-11.1c2.1,0,3.8,0.2,5.3,0.7h8.7v2.7l-4,0.3c1.4,1.8,2.1,4.4,2.1,7.4v0.4
			C918.5,277.3,914.7,281.2,906.4,281.2z M906.4,261.9c-6.3,0-8.5,1.9-8.5,7.7v0.7c0,6,2.7,7.7,8.5,7.7s8.5-2,8.5-7.7v-0.7
			C914.9,263.9,912.7,261.9,906.4,261.9z"/>
		<path class="st0" d="M943,290.9l-4.7,12.8h-3.7l4.7-12.8h-2.1l-10.7-31.7h3.8l9.8,29l9.8-29h3.8L943,290.9z"/>
	</g>
</g>
<g id="Layer_2">
</g>
<g id="Layer_3">
</g>
</svg>
