<?xml version="1.0" standalone="no"?>
<!DOCTYPE svg PUBLIC "-//W3C//DTD SVG 20010904//EN"
 "http://www.w3.org/TR/2001/REC-SVG-20010904/DTD/svg10.dtd">
<svg version="1.0" xmlns="http://www.w3.org/2000/svg"
 width="174.000000pt" height="91.000000pt" viewBox="0 0 174.000000 91.000000"
 preserveAspectRatio="xMidYMid meet">
<metadata>
Created by potrace 1.16, written by Peter Selinger 2001-2019
</metadata>
<g transform="translate(0.000000,91.000000) scale(0.100000,-0.100000)"
fill="#000000" stroke="none">
<path d="M790 890 c-184 -48 -329 -152 -393 -283 -20 -40 -39 -85 -42 -99 -7
-26 -6 -26 30 -18 33 7 36 6 33 -12 -2 -16 -22 -26 -98 -48 -147 -43 -320
-113 -320 -130 0 -3 30 -13 67 -22 l67 -16 31 25 c45 39 145 83 187 83 53 0
82 -31 118 -126 16 -44 46 -99 65 -122 72 -83 225 -130 388 -119 83 6 102 13
75 28 -9 5 -26 23 -38 39 l-21 30 28 -11 c43 -16 198 -13 293 6 99 20 126 31
95 41 -50 14 -129 51 -132 60 -2 7 20 14 54 18 187 21 350 135 429 301 30 60
42 105 30 105 -2 0 -23 -7 -47 -16 -63 -22 -181 -20 -286 6 -48 12 -92 25 -96
30 -5 4 33 16 84 27 l93 19 -104 46 c-173 75 -262 100 -375 105 -72 4 -112 1
-142 -10 -24 -8 -43 -12 -43 -8 0 13 64 70 90 80 24 9 23 10 -10 10 -19 0 -69
-9 -110 -19z m-80 -320 c0 -18 -7 -20 -65 -20 -74 0 -107 -16 -131 -61 -18
-37 -18 -73 2 -115 21 -43 59 -64 119 -64 l45 0 0 50 c0 48 -1 50 -29 50 -16
0 -34 7 -41 15 -11 13 -5 15 44 15 l56 0 0 -81 0 -81 -72 4 c-83 4 -114 21
-147 79 -25 44 -27 89 -5 135 29 60 89 91 182 93 36 1 42 -2 42 -19z m295
-103 c46 -126 52 -138 60 -116 2 8 20 57 39 109 19 52 38 103 42 114 6 16 16
18 89 14 96 -5 129 -22 152 -75 12 -31 13 -41 1 -72 -24 -63 -125 -106 -157
-67 -9 11 -2 14 39 18 66 7 90 29 90 84 0 55 -25 74 -97 74 l-53 0 0 -135 c0
-128 -1 -135 -20 -135 -18 0 -20 8 -22 131 l-3 130 -55 -150 -55 -150 -55 155
-55 154 -87 0 -88 0 0 -50 0 -50 87 0 c85 0 86 0 68 -20 -15 -16 -31 -20 -87
-20 l-68 0 0 -65 c0 -58 -2 -65 -20 -65 -19 0 -20 7 -20 155 l0 156 116 -3
116 -3 43 -118z"/>
</g>
</svg>
